  <svg
    viewBox="0 0 24 24"
    width="24"
    height="24"
    xmlns="http://www.w3.org/2000/svg"
  >
    <path d="m 11.984468,11.400234 a 4.1708713,4.1708713 0 0 0 -4.1708715,4.170872 4.1708713,4.1708713 0 0 0 4.1708715,4.170871 4.1708713,4.1708713 0 0 0 4.170871,-4.170871 4.1708713,4.1708713 0 0 0 -4.170871,-4.170872 z m 0,2.085515 a 2.0855145,2.0855145 0 0 1 2.085514,2.085514 2.0855145,2.0855145 0 0 1 -2.085514,2.085515 2.0855145,2.0855145 0 0 1 -2.0855147,-2.085515 2.0855145,2.0855145 0 0 1 2.0855147,-2.085514 z m 0,-10.4273755 C 7.9692701,3.0547891 4.0076715,5.0922595 1.7383834,8.4147291 1.0869581,9.3455787 0.53272056,10.372631 0.20115541,11.456434 -0.01314611,12.45247 1.4347212,13.121039 2.0403508,12.278115 2.5251855,11.288937 2.9196113,10.230711 3.6233744,9.3587814 6.0476268,6.0039159 10.584154,4.3898364 14.58004,5.4741132 c 3.282507,0.8178974 6.062996,3.3593583 7.198428,6.5331698 0.316218,1.016765 1.967675,0.808163 2.014929,-0.259975 C 23.701499,10.775707 23.11265,9.9074029 22.655719,9.0607747 20.452956,5.3738711 16.271917,3.0501957 11.984389,3.0584721 Z m 0,4.1708713 c -3.4801535,0.00332 -6.5926805,2.1667406 -7.8085113,5.4276892 -0.00824,0.02101 -0.016395,0.04206 -0.024435,0.06314 h 0.00203 c -0.038662,0.109949 -0.058636,0.225601 -0.059061,0.342151 0,0.575913 0.4668632,1.042737 1.0427375,1.042737 0.4324574,-4.73e-4 0.8197892,-0.267853 0.9734923,-0.672076 l 0.00203,0.002 c 0.8975144,-2.470294 3.24326,-4.1164537 5.8714645,-4.1200007 2.613426,0.00255 4.950028,1.6292527 5.859241,4.0794377 0.0045,0.01301 0.0093,0.02589 0.01427,0.0387 0.162413,0.387296 0.541311,0.639365 0.961275,0.639483 0.575914,0 1.042738,-0.466863 1.042738,-1.042737 C 19.861581,12.850653 19.819359,12.6746 19.73547,12.498193 18.483298,9.3140183 15.405768,7.2376078 11.984101,7.2293315 Z" />
  </svg>
